<?xml version="1.0" encoding="UTF-8" standalone="no"?>
<!-- Created with Inkscape (http://www.inkscape.org/) -->

<svg
   version="1.1"
   id="svg2"
   xml:space="preserve"
   width="266.25333"
   height="134.30667"
   viewBox="0 0 266.25333 134.30667"
   sodipodi:docname="CP_logos_exp_4c Kopie_Logo_NimBit_4c.eps"
   xmlns:inkscape="http://www.inkscape.org/namespaces/inkscape"
   xmlns:sodipodi="http://sodipodi.sourceforge.net/DTD/sodipodi-0.dtd"
   xmlns="http://www.w3.org/2000/svg"
   xmlns:svg="http://www.w3.org/2000/svg"><defs
     id="defs6" /><sodipodi:namedview
     id="namedview4"
     pagecolor="#ffffff"
     bordercolor="#666666"
     borderopacity="1.0"
     inkscape:pageshadow="2"
     inkscape:pageopacity="0.0"
     inkscape:pagecheckerboard="0" /><g
     id="g8"
     inkscape:groupmode="layer"
     inkscape:label="ink_ext_XXXXXX"
     transform="matrix(1.3333333,0,0,-1.3333333,0,134.30667)"><g
       id="g10"
       transform="scale(0.1)"><path
         d="M 103.508,368.445 H 83.1953 c -4.3164,0 -6.4726,2.149 -6.4726,6.473 v 284.004 c 0,4.308 2.1562,6.473 6.4726,6.473 h 18.9297 c 3.691,0 6.156,-1.235 7.387,-3.696 L 236.973,437.715 h 1.843 v 221.207 c 0,4.308 2.157,6.473 6.473,6.473 h 20.32 c 4.301,0 6.461,-2.165 6.461,-6.473 V 374.918 c 0,-4.324 -2.16,-6.473 -6.461,-6.473 h -17.093 c -3.395,0 -6.621,2.004 -9.7,6.016 L 111.824,596.125 h -1.847 V 374.918 c 0,-4.324 -2.161,-6.473 -6.469,-6.473"
         style="fill:#231f20;fill-opacity:1;fill-rule:nonzero;stroke:none"
         id="path12" /><path
         d="m 334.137,374.918 v 222.594 c 0,4.308 1.996,6.457 5.996,6.457 h 21.242 c 4.309,0 6.473,-2.149 6.473,-6.457 V 374.918 c 0,-4.324 -2.164,-6.473 -6.473,-6.473 h -20.777 c -4.317,0 -6.461,2.149 -6.461,6.473 z m 0,253.582 v 30.438 c 0,4.308 1.996,6.457 5.996,6.457 h 21.242 c 4.309,0 6.473,-2.149 6.473,-6.457 V 628.5 c 0,-4.309 -2.164,-6.453 -6.473,-6.453 h -21.242 c -4,0 -5.996,2.144 -5.996,6.453"
         style="fill:#231f20;fill-opacity:1;fill-rule:nonzero;stroke:none"
         id="path14" /><path
         d="M 452.535,368.445 H 431.75 c -4.316,0 -6.465,2.149 -6.465,6.473 v 222.594 c 0,4.308 2.149,6.457 6.465,6.457 h 20.785 c 4.309,0 6.465,-2.149 6.465,-6.457 v -18.024 h 1.848 c 8.617,16.321 24.933,24.481 48.949,24.481 h 17.09 c 27.082,0 45.871,-10.465 56.336,-31.391 4.925,10.145 12.707,17.926 23.328,23.309 10.621,5.383 21.769,8.082 33.48,8.082 h 16.164 c 20.926,0 37.246,-6 48.95,-18.008 11.695,-12.012 17.546,-28.789 17.546,-50.332 V 374.918 c 0,-4.324 -2.152,-6.473 -6.461,-6.473 h -20.785 c -4.316,0 -6.465,2.149 -6.465,6.473 v 159.32 c 0,26.785 -12.933,40.184 -38.792,40.184 h -15.239 c -13.855,0 -24.554,-3.93 -32.094,-11.789 -7.55,-7.844 -11.312,-18.543 -11.312,-32.086 V 374.918 c 0,-4.324 -2.164,-6.473 -6.473,-6.473 h -20.777 c -4.316,0 -6.465,2.149 -6.465,6.473 v 159.32 c 0,26.785 -12.933,40.184 -38.793,40.184 h -17.086 c -13.855,0 -24.476,-3.707 -31.863,-11.094 C 462.691,555.941 459,545.477 459,531.938 v -157.02 c 0,-4.324 -2.156,-6.473 -6.465,-6.473"
         style="fill:#231f20;fill-opacity:1;fill-rule:nonzero;stroke:none"
         id="path16" /><path
         d="m 827.055,397.074 h 75.73 c 26.477,0 39.719,13.082 39.719,39.27 v 30.015 c 0,26.153 -14.164,39.25 -42.488,39.25 h -72.961 c -3.086,0 -4.625,-1.386 -4.625,-4.164 v -99.746 c 0,-3.078 1.539,-4.625 4.625,-4.625 z m 0,136.707 h 71.117 c 27.082,0 40.641,13.086 40.641,39.254 v 24.477 c 0,26.152 -13.094,39.254 -39.262,39.254 h -72.496 c -3.086,0 -4.625,-1.547 -4.625,-4.625 v -94.207 c 0,-2.778 1.539,-4.153 4.625,-4.153 z M 788.719,374.918 v 284.004 c 0,4.308 2.156,6.473 6.472,6.473 h 108.52 c 21.242,0 37.871,-5.934 49.871,-17.79 12.012,-11.851 18.016,-28.39 18.016,-49.636 v -25.391 c 0,-27.418 -12.934,-45.109 -38.793,-53.109 11.695,-0.934 21.703,-6.094 30.019,-15.485 8.309,-9.39 12.469,-21.781 12.469,-37.168 v -30.949 c 0,-21.242 -6.086,-37.781 -18.246,-49.633 -12.16,-11.855 -28.859,-17.789 -50.102,-17.789 H 795.191 c -4.316,0 -6.472,2.149 -6.472,6.473"
         style="fill:#231f20;fill-opacity:1;fill-rule:nonzero;stroke:none"
         id="path18" /><path
         d="m 1029.53,374.918 v 222.594 c 0,4.308 2,6.457 6,6.457 h 21.24 c 4.31,0 6.47,-2.149 6.47,-6.457 V 374.918 c 0,-4.324 -2.16,-6.473 -6.47,-6.473 h -20.78 c -4.31,0 -6.46,2.149 -6.46,6.473 z m 0,264.332 v 19.688 c 0,4.308 2,6.457 6,6.457 h 21.24 c 4.31,0 6.47,-2.149 6.47,-6.457 V 639.25 c 0,-4.309 -2.16,-6.453 -6.47,-6.453 h -21.24 c -4,0 -6,2.144 -6,6.453"
         style="fill:#231f20;fill-opacity:1;fill-rule:nonzero;stroke:none"
         id="path20" /><path
         d="m 1135.3,574.422 h -25.4 c -4.32,0 -6.46,1.988 -6.46,6 v 17.09 c 0,4.308 2.14,6.457 6.46,6.457 h 25.4 c 3.07,0 4.62,1.386 4.62,4.164 v 39.711 c 0,4.308 2.15,6.469 6.46,6.469 h 20.79 c 3.99,0 6,-2.161 6,-6.469 v -39.711 c 0,-2.778 1.69,-4.164 5.08,-4.164 h 38.1 c 4.62,0 6.93,-2.149 6.93,-6.457 v -17.09 c 0,-4.012 -2.31,-6 -6.93,-6 h -38.1 c -3.39,0 -5.08,-1.387 -5.08,-4.164 v -133 c 0,-26.168 13.54,-39.25 40.64,-39.25 h 18.01 c 4.62,0 6.93,-2.164 6.93,-6.473 v -17.074 c 0,-4.012 -2.31,-6.016 -6.93,-6.016 h -22.17 c -21.24,0 -38.17,5.934 -50.79,17.789 -12.64,11.852 -18.94,28.391 -18.94,49.633 v 134.391 c 0,2.777 -1.55,4.164 -4.62,4.164"
         style="fill:#231f20;fill-opacity:1;fill-rule:nonzero;stroke:none"
         id="path22" /><path
         d="m 1286.51,328.316 220.64,220.633 c 13.05,13.055 34.22,13.055 47.27,0 l 220.64,-220.633 c 13.05,-13.054 13.05,-34.222 0,-47.277 L 1554.42,60.4063 c -13.05,-13.0547 -34.22,-13.0547 -47.27,0 L 1286.51,281.039 c -13.05,13.055 -13.05,34.223 0,47.277"
         style="fill:#33bbc2;fill-opacity:1;fill-rule:nonzero;stroke:none"
         id="path24" /><path
         d="m 1183.97,778.566 183.43,183.426 c 13.05,13.055 34.22,13.055 47.28,0 L 1598.1,778.566 c 13.06,-13.054 13.06,-34.222 0,-47.277 l -183.42,-183.43 c -13.06,-13.054 -34.23,-13.054 -47.28,0 l -183.43,183.43 c -13.05,13.055 -13.05,34.223 0,47.277"
         style="fill:#edf0ed;fill-opacity:1;fill-rule:nonzero;stroke:none"
         id="path26" /><path
         d="m 1600.13,641.926 134.43,134.437 c 13.06,13.055 34.22,13.055 47.28,0 l 134.43,-134.437 c 13.06,-13.055 13.06,-34.223 0,-47.278 L 1781.84,460.215 c -13.06,-13.055 -34.22,-13.055 -47.28,0 l -134.43,134.433 c -13.06,13.055 -13.06,34.223 0,47.278"
         style="fill:#fbbf09;fill-opacity:1;fill-rule:nonzero;stroke:none"
         id="path28" /></g></g></svg>
